HIERARCHY
ROOT Hips
{
	OFFSET -14.64140 90.27770 -84.91600
	CHANNELS 6 Xposition Yposition Zposition Zrotation Xrotation Yrotation
	JOINT Spine
	{
		OFFSET 0.00000 13.20850 -1.60436
		CHANNELS 3 Zrotation Xrotation Yrotation
		JOINT Spine1
		{
			OFFSET 0.00000 8.61716 0.00000
			CHANNELS 3 Zrotation Xrotation Yrotation
			JOINT Spine2
			{
				OFFSET 0.00000 8.61717 0.00000
				CHANNELS 3 Zrotation Xrotation Yrotation
				JOINT Spine3
				{
					OFFSET 0.00000 8.61717 0.00000
					CHANNELS 3 Zrotation Xrotation Yrotation
					JOINT Neck
					{
						OFFSET 0.00000 11.07920 1.10792
						CHANNELS 3 Zrotation Xrotation Yrotation
						JOINT Neck1
						{
							OFFSET 0.00000 7.08032 0.00000
							CHANNELS 3 Zrotation Xrotation Yrotation
							JOINT Head
							{
								OFFSET 0.00000 7.08031 0.00000
								CHANNELS 3 Zrotation Xrotation Yrotation
								End site
								{
									OFFSET 0.00000 0.00000 0.00000
								}
							}
						}
					}
					JOINT RightShoulder
					{
						OFFSET -0.01000 7.91373 5.19711
						CHANNELS 3 Zrotation Xrotation Yrotation
						JOINT RightArm
						{
							OFFSET -18.41580 0.00000 0.00000
							CHANNELS 3 Zrotation Xrotation Yrotation
							JOINT RightForeArm
							{
								OFFSET -29.11090 0.00000 0.00000
								CHANNELS 3 Zrotation Xrotation Yrotation
								JOINT RightHand
								{
									OFFSET -24.65040 0.00000 0.00000
									CHANNELS 3 Zrotation Xrotation Yrotation
									JOINT RightHandThumb1
									{
										OFFSET -5.35114 -0.85590 3.97906
										CHANNELS 3 Zrotation Xrotation Yrotation
										JOINT RightHandThumb2
										{
											OFFSET -4.52789 0.00000 0.00000
											CHANNELS 3 Zrotation Xrotation Yrotation
											JOINT RightHandThumb3
											{
												OFFSET -2.46976 0.00000 0.00000
												CHANNELS 3 Zrotation Xrotation Yrotation
												End site
												{
													OFFSET 0.00000 0.00000 0.00000
												}
											}
										}
									}
									JOINT RightHandIndex1
									{
										OFFSET -14.26970 0.00000 2.88139
										CHANNELS 3 Zrotation Xrotation Yrotation
										JOINT RightHandIndex2
										{
											OFFSET -5.48836 0.00000 0.00000
											CHANNELS 3 Zrotation Xrotation Yrotation
											JOINT RightHandIndex3
											{
												OFFSET -3.01859 0.00000 0.00000
												CHANNELS 3 Zrotation Xrotation Yrotation
												End site
												{
													OFFSET 0.00000 0.00000 0.00000
												}
											}
										}
									}
									JOINT RightHandMiddle1
									{
										OFFSET -14.26970 0.00000 -0.09147
										CHANNELS 3 Zrotation Xrotation Yrotation
										JOINT RightHandMiddle2
										{
											OFFSET -6.17441 0.00000 0.00000
											CHANNELS 3 Zrotation Xrotation Yrotation
											JOINT RightHandMiddle3
											{
												OFFSET -3.56743 0.00000 0.00000
												CHANNELS 3 Zrotation Xrotation Yrotation
												End site
												{
													OFFSET 0.00000 0.00000 0.00000
												}
											}
										}
									}
									JOINT RightHandRing1
									{
										OFFSET -12.69180 0.00000 -3.06433
										CHANNELS 3 Zrotation Xrotation Yrotation
										JOINT RightHandRing2
										{
											OFFSET -5.62556 0.00000 0.00000
											CHANNELS 3 Zrotation Xrotation Yrotation
											JOINT RightHandRing3
											{
												OFFSET -3.56744 0.00000 0.00000
												CHANNELS 3 Zrotation Xrotation Yrotation
												End site
												{
													OFFSET 0.00000 0.00000 0.00000
												}
											}
										}
									}
									JOINT RightHandPinky1
									{
										OFFSET -11.11390 0.00000 -6.03719
										CHANNELS 3 Zrotation Xrotation Yrotation
										JOINT RightHandPinky2
										{
											OFFSET -4.52789 0.00000 0.00000
											CHANNELS 3 Zrotation Xrotation Yrotation
											JOINT RightHandPinky3
											{
												OFFSET -2.46976 0.00000 0.00000
												CHANNELS 3 Zrotation Xrotation Yrotation
												End site
												{
													OFFSET 0.00000 0.00000 0.00000
												}
											}
										}
									}
								}
							}
						}
					}
					JOINT LeftShoulder
					{
						OFFSET 0.01000 7.91373 5.19711
						CHANNELS 3 Zrotation Xrotation Yrotation
						JOINT LeftArm
						{
							OFFSET 18.41580 0.00000 0.00000
							CHANNELS 3 Zrotation Xrotation Yrotation
							JOINT LeftForeArm
							{
								OFFSET 29.11090 0.00000 0.00000
								CHANNELS 3 Zrotation Xrotation Yrotation
								JOINT LeftHand
								{
									OFFSET 24.65040 0.00000 0.00000
									CHANNELS 3 Zrotation Xrotation Yrotation
									JOINT LeftHandThumb1
									{
										OFFSET 5.35114 -0.85590 3.97906
										CHANNELS 3 Zrotation Xrotation Yrotation
										JOINT LeftHandThumb2
										{
											OFFSET 4.52789 0.00000 0.00000
											CHANNELS 3 Zrotation Xrotation Yrotation
											JOINT LeftHandThumb3
											{
												OFFSET 2.46977 0.00000 0.00000
												CHANNELS 3 Zrotation Xrotation Yrotation
												End site
												{
													OFFSET 0.00000 0.00000 0.00000
												}
											}
										}
									}
									JOINT LeftHandIndex1
									{
										OFFSET 14.26970 0.00000 2.88139
										CHANNELS 3 Zrotation Xrotation Yrotation
										JOINT LeftHandIndex2
										{
											OFFSET 5.48836 0.00000 0.00000
											CHANNELS 3 Zrotation Xrotation Yrotation
											JOINT LeftHandIndex3
											{
												OFFSET 3.01859 0.00000 0.00000
												CHANNELS 3 Zrotation Xrotation Yrotation
												End site
												{
													OFFSET 0.00000 0.00000 0.00000
												}
											}
										}
									}
									JOINT LeftHandMiddle1
									{
										OFFSET 14.26970 0.00000 -0.09147
										CHANNELS 3 Zrotation Xrotation Yrotation
										JOINT LeftHandMiddle2
										{
											OFFSET 6.17440 0.00000 0.00000
											CHANNELS 3 Zrotation Xrotation Yrotation
											JOINT LeftHandMiddle3
											{
												OFFSET 3.56744 0.00000 0.00000
												CHANNELS 3 Zrotation Xrotation Yrotation
												End site
												{
													OFFSET 0.00000 0.00000 0.00000
												}
											}
										}
									}
									JOINT LeftHandRing1
									{
										OFFSET 12.69180 0.00000 -3.06433
										CHANNELS 3 Zrotation Xrotation Yrotation
										JOINT LeftHandRing2
										{
											OFFSET 5.62556 0.00000 0.00000
											CHANNELS 3 Zrotation Xrotation Yrotation
											JOINT LeftHandRing3
											{
												OFFSET 3.56744 0.00000 0.00000
												CHANNELS 3 Zrotation Xrotation Yrotation
												End site
												{
													OFFSET 0.00000 0.00000 0.00000
												}
											}
										}
									}
									JOINT LeftHandPinky1
									{
										OFFSET 11.11390 0.00000 -6.03719
										CHANNELS 3 Zrotation Xrotation Yrotation
										JOINT LeftHandPinky2
										{
											OFFSET 4.52789 0.00000 0.00000
											CHANNELS 3 Zrotation Xrotation Yrotation
											JOINT LeftHandPinky3
											{
												OFFSET 2.46976 0.00000 0.00000
												CHANNELS 3 Zrotation Xrotation Yrotation
												End site
												{
													OFFSET 0.00000 0.00000 0.00000
												}
											}
										}
									}
								}
							}
						}
					}
					JOINT pCube4
					{
						OFFSET 0.00000 10.91090 1.10792
						CHANNELS 3 Zrotation Xrotation Yrotation
						End site
						{
							OFFSET 0.00000 0.00000 0.00000
						}
					}
				}
			}
		}
	}
	JOINT RightUpLeg
	{
		OFFSET -9.98441 0.00000 0.00000
		CHANNELS 3 Zrotation Xrotation Yrotation
		JOINT RightLeg
		{
			OFFSET 0.00000 -42.11790 0.00000
			CHANNELS 3 Zrotation Xrotation Yrotation
			JOINT RightFoot
			{
				OFFSET 0.00000 -45.00020 -0.00001
				CHANNELS 3 Zrotation Xrotation Yrotation
				JOINT RightForeFoot
				{
					OFFSET 0.00000 -3.74820 0.00000
					CHANNELS 3 Zrotation Xrotation Yrotation
					JOINT RightToeBase
					{
						OFFSET 0.00000 0.06325 14.43120
						CHANNELS 3 Zrotation Xrotation Yrotation
						End site
						{
							OFFSET 0.00000 0.00000 0.00000
						}
					}
				}
			}
		}
	}
	JOINT LeftUpLeg
	{
		OFFSET 9.98441 0.00000 0.00000
		CHANNELS 3 Zrotation Xrotation Yrotation
		JOINT LeftLeg
		{
			OFFSET 0.00000 -42.11800 0.00000
			CHANNELS 3 Zrotation Xrotation Yrotation
			JOINT LeftFoot
			{
				OFFSET 0.00000 -45.00070 0.00000
				CHANNELS 3 Zrotation Xrotation Yrotation
				JOINT LeftForeFoot
				{
					OFFSET 0.00000 -3.74824 0.00000
					CHANNELS 3 Zrotation Xrotation Yrotation
					JOINT LeftToeBase
					{
						OFFSET 0.00000 0.06325 14.43110
						CHANNELS 3 Zrotation Xrotation Yrotation
						End site
						{
							OFFSET 0.00000 0.00000 0.00000
						}
					}
				}
			}
		}
	}
}
MOTION
Frames: 4
Frame Time: 0.050000
0.01196138627154012 0.026297788925148127 -0.025441988478652023 -0.013995226003603116 -0.013812163650407234 0.007274890648810842 5.959686927303601 5.129233278660997 -2.25849218861068 -0.7150448363866072 3.678018720160145 0.35199104147828003 -0.25588802409947387 -0.937629686842313 -0.29353466825870883 -1.233690134188581 -0.5271048608251594 -0.33736932587940294 -1.4402931597172162 13.106584300329837 2.5477984841262344 0.26140775558488677 -1.1602974302321918 8.03697434184348 -0.4368023119611611 -18.32981888833442 0.6477792237471515 -10.761885634346799 3.9348017340952195 -18.37288976131787 85.17998575813492 -8.35304562659797 -0.31229300023285694 28.16246241915704 6.090109363777458 82.69588139731525 9.10868098726768 -0.4552818957724653 -4.598599385246991 4.543291628305445 -0.15323377405678296 -1.5863474169159792 0.030675639241353546 -0.010426303246780918 -56.239574553116896 0.01253876715813533 -0.044125035341862955 -56.23907553758188 -38.76495342641764 -0.035036303474759126 0.03323046828321746 0.010033784136208894 -0.01829883424688916 -0.0072731128990814005 0.010298317035315653 0.04047886635855979 -0.002201721505982314 -36.67566454331274 -0.0027018178109190945 -0.029922977971985093 -0.03374476067256795 0.0019344559358897284 0.005038832845819579 -0.013200709363206756 0.0004907014131113941 -0.028362168805555903 -19.786659480044904 0.019850633393858702 0.027771177262875164 -0.02706541825521531 -0.04714459601071301 0.02823164176785267 0.010141506366460358 -0.0304358942954993 0.017621213857781412 24.02319208206801 0.01880662183606539 0.004926227579323507 28.866413614214494 -0.011635544044507572 -0.00826329469923852 28.83564522372566 -0.04095234610790764 0.0006813181703685968 13.657037858654522 3.09830269789651 14.820387717713249 -77.51836783789047 12.788016391475038 -19.8252633949816 -28.304870981596867 15.698265112744101 -70.39153084877138 -24.58919267717555 -4.113292501775644 3.4019058758104523 -0.46157707120349867 0.0632725108709919 -8.14050816002236 -0.003929004833724639 0.03837112989114927 44.58688190961747 0.019280713182706945 -0.022891266959533717 44.57581110280878 12.465616194241905 -0.01893609425790964 0.015483827785132787 0.041382559696079506 -0.04226311538205916 -0.04360361686476998 -0.00878233048201457 -0.04740062497032215 0.03718875996254063 11.155620595674 -0.028964806781685108 -0.04417999052756055 0.029886825153881243 -0.018366120148665406 0.03626089469843997 -0.041510343197600205 -0.0054330736097522245 -0.017453655310605345 4.813940582576096 -0.014139573341686683 -0.04305999662998626 -0.03792280583053925 0.008003048440260575 0.04574944348439217 0.03790577391417783 -0.03284486549275952 0.018263352470373678 -5.609680608064762 -0.012009631741977915 -0.004962858769043114 -6.71746844813948 0.049564140512998664 0.024515530269843305 -6.747049928712984 -0.03554286341500354 0.03345113475941206 0.04610856302559368 0.028232424540175157 -0.036376567899749634 8.050865549882072 3.4987929060204475 -19.220893198215727 -0.00965715610830606 10.384676906199713 -0.016060246347123754 -5.651865581010742 -15.643321069542427 3.2182070808086785 0.044874825743982515 -0.03384985459907752 -0.0452780175135702 0.011163093844991485 4.698442015227314 -0.017290206301203516 12.458754435970151 -8.198451483529192 6.867415644035563 -0.0068591328555066295 46.37353348618487 0.035003004050251384 -4.3547249709517635 -14.756974596189158 -3.8734236064037937 -0.0066303807656401224 0.032488516061947824 0.034951039522407856 -0.023576979364787164 -10.753704738810384 -0.045469676895059236 
-0.009433335243656792 -0.0340038654350691 0.004430695946835064 0.0010683378944774927 0.037556522042515444 0.0026608693185226975 5.780401579846072 5.248676312334559 -2.2166070587673143 -0.7292774442547288 3.622844192082912 0.3726378348409954 -0.2808305797648378 -0.8521867611803672 -0.3043830004491023 -1.222758119981959 -0.4333018044168351 -0.35385692030711935 -1.3511763774824561 12.846601607552216 2.2495287669742687 0.2883953711216995 -1.2460290851700548 7.400272839603383 -0.3953909710013763 -18.395700939957738 0.5671256765239027 -10.56558985007186 3.831664277737317 -18.170816084069305 85.20936555533574 -7.8904566821058815 -0.9433343973150531 27.789424573460536 6.99510468499366 81.53810427064387 8.86167547843585 -0.4925654622062544 -4.497514057183341 4.574508068847558 -0.13520785505826233 -1.5774887050593123 0.010952888578312099 0.04401757925052076 -56.189671302935515 -0.03788036879716749 -0.028559095581491913 -56.2554079924693 -38.76834714832118 0.04073420715708199 0.0363910038360443 -0.01517172687904799 -0.003955700346531757 0.03654561688434933 0.047131744566968156 -0.012195054364564143 -0.01698986708249771 -36.65756762965287 0.003945054492717427 -0.04360324126382854 -0.035050981298378435 -0.027263684897989013 0.016230901493028253 -0.04857918685430045 -0.03255461070811128 0.01769050368134063 -19.75215153368228 0.04945210029132043 0.02167368360421666 0.003641038590205205 -0.01820297569655547 -0.009259494707579384 0.004530803802601819 0.02672736497639377 0.011029052018208075 24.036027880413243 0.042970384214061755 -0.04130593502750262 28.83806929656747 -0.048337769240674004 0.006185275104034289 28.83515297850968 0.04518527802900675 0.030440065799026108 13.261413567249246 3.0945665907608526 14.63074188160357 -77.20289277717715 13.984044247858698 -19.37150479048104 -26.089689055789197 16.70047036486454 -68.4046256420486 -24.71997090168325 -4.1298244855642645 3.5611782459268073 -0.5155544374030756 0.06240263694792338 -8.138965765059426 0.04378346301671676 -0.04073369554566963 44.57055418422798 0.024980456149650308 0.0381641472788339 44.51776734230807 12.423210407296413 -0.021541916017600245 0.00232666305729665 0.04197208769956887 0.009889446270569731 0.017643030728877917 0.016380335406182216 -0.015184401845782475 -0.03952606421300514 11.133896832684682 -0.03945147562513822 -0.03395712413042884 0.04839988132553508 -0.0105408863078209 -0.030693082817670927 0.04962254162768176 0.01314198282969521 0.03787760659683017 4.755354099577602 -0.014017663257566239 -0.0020513506403233503 -0.02944752611966604 -0.013571090589942703 0.047102443739224814 -0.044578328634413064 -0.012061724775167698 0.003450047158646682 -5.592485795985834 0.0028779934684528673 0.0390063514019538 -6.727097789731775 -0.007791309204281197 -0.011309355345999283 -6.72861026197857 0.01780841267838959 0.033496530761357286 -0.029530720119972056 0.017809639240143064 0.023888593714624175 8.030193746079727 3.47353187892646 -19.229979458153664 -0.008469106611456532 10.36864118454946 0.054916583840646155 -5.622974071119067 -15.640878560961468 3.2050336129830863 -0.04912839144635667 -0.04132098612937935 0.02637788704594069 -0.020490620323466713 4.742759218000225 0.007676830679301984 12.433518261249105 -8.192180927926527 6.8394580865131696 -0.03823439004515957 46.35833468674469 -0.006078338630643143 -4.3270460998639955 -14.75003037808551 -3.8501407437666395 0.041896879838829115 -0.01486068972576389 -0.01654101980892738 -0.03058815350731436 -10.721982008752686 0.040337292566504646 
0.014465035234959973 -0.02985290823879815 0.04007991655252332 -0.040781938567785996 0.04582060825917956 -0.01865535460337684 5.471712417156741 5.239263315595661 -2.173433000880697 -0.7472727861673331 3.5760587826496293 0.3109028480672543 -0.31332760555586386 -0.8369447264873063 -0.3625311848024349 -1.1766581463110148 -0.4412667205981709 -0.3224621733116293 -1.228879268390338 12.58577403671774 1.987923350391955 0.22508602188787086 -1.2762099776856186 6.558719079297377 -0.239865867500443 -18.430227990422562 0.49734805122732806 -10.222751185399732 3.772890687954162 -18.040149516188627 85.05635911294604 -7.1232394160137025 -1.6712391587598125 26.645610799115712 8.294561325098783 80.25769729640209 8.612697422886047 -0.48251601292901436 -4.305416315110195 4.553729633110912 -0.0921495743313046 -1.5679635112101933 -0.00027546542974388904 -0.03351986537533345 -56.1895811099553 0.041444574123924605 -0.0003137519337185973 -56.2561459416993 -38.749434254502766 0.010874572717853314 0.03308859458961706 -0.025364470118561976 0.031151064122248582 -0.0055634342778360215 0.03605669820800326 0.005382736380814889 -0.048796289581737574 -36.658877006405774 0.02772450536556628 0.029221826954337168 -0.03187950683578553 0.01103014615176115 0.026409012076486393 -0.022832768583218508 -0.006815719656375814 -0.014454386167235213 -19.800388481843772 0.006133168992034992 0.04134646712106294 0.03760837385837555 -0.0222427918828742 0.004551098494142452 0.004160814288779936 0.02448516144271287 0.04121224006935102 24.08111202994981 -0.013211013799671023 -0.0193936155723834 28.834740095928034 0.0022398233608962787 -0.017924748139819757 28.8979278125094 0.025237340983307172 0.04415649609931815 12.722057993757941 3.0063289155866313 14.500319560660948 -76.67455340946655 14.929196599259324 -18.462475499543725 -22.562399323305335 17.52613676082093 -65.08449702501646 -24.668358718778958 -3.900358195502245 3.6121000916104817 -0.503359078947588 0.07409304251562619 -8.129540741055699 0.0174757354960595 -0.015145195177581882 44.523934726292346 -0.01605639019424015 -0.00986938998165141 44.604439078323146 12.446794088484081 -0.04154391265575527 0.011590466519903002 -0.03763163263498108 0.003529168652904468 0.03853662371566089 -0.048696735867103685 -0.00617241280474243 -0.02683910801133198 11.096892910531142 0.02977810878612374 -0.02945325089512563 -0.0326727583457455 -0.003807401240804834 -0.010009006725604692 0.04816179531214198 -0.03780252323318374 0.010153660420567954 4.8044804146800555 0.012260364251510645 -0.03006498529278694 0.03537379262013073 0.01971752129379781 -0.01935977662157938 0.016247699933264227 0.03367758506536479 -0.012583042549539675 -5.596608954241042 0.019973562744921187 0.039593503152993995 -6.7406292215070085 0.0345991410737685 0.02662589464097849 -6.714924053322743 -0.01746821419808896 0.0235377569064292 0.011541120069079282 0.04869935596050331 -0.037671922694074995 8.028914985027841 3.506866774848772 -19.234334208233495 -0.034249155080773384 10.383242033023366 0.06330061994282984 -5.640367368959974 -15.681491395509406 3.2057310778521 -0.010263561600761119 -0.0133000218541035 -0.018611892219905637 0.00023629928899027332 4.719576815105785 0.014686084109075865 12.503667697677683 -8.229623248865082 6.907969276873703 -0.030124544137777907 46.426489402687 0.008192757095815547 -4.294463336258219 -14.742138743526638 -3.8550884401661847 0.02666006597867848 -0.03657408486379949 0.029754701967176854 -0.030000068277981802 -10.723925246915018 -0.011397990169452497 
-0.024555597439895833 0.029759197483660856 -0.006627492496126939 -0.04740380080029785 -0.029856349835775838 -0.020378980468665847 5.1705460510284 5.377792337619607 -2.157315917543176 -0.7278017432154612 3.617332322793314 0.37694605899203143 -0.3588962287470206 -0.7879626672592195 -0.26676833689807955 -1.08201148455896 -0.4225699505402747 -0.3178046279839615 -1.1659379274135944 12.390221512668097 1.7300261183913703 0.20364925398113326 -1.357135370393827 5.94536705620811 -0.19607866108450733 -18.401189388594855 0.45479102982726916 -9.867144501639284 3.704585344419704 -17.885414641835116 84.81035092854962 -5.932749334898052 -2.309924823553749 23.954377581437154 9.869571420136298 77.95105730355527 8.539780822186327 -0.4415621559899545 -3.971762715646172 4.513118029108267 -0.13752142610495677 -1.5858193924380644 0.025332882839067476 0.012893757434684551 -56.21404159447965 0.036129331121310324 0.02180771415476818 -56.21990327172791 -38.79875526007008 0.04457937569925003 -0.02127567252137331 -0.001715419688749954 0.012785762553905481 -0.013977921658001933 0.013857942255134448 0.026784670550508694 -0.004469910029440151 -36.692059210896225 0.032956552600117255 -0.0062304308624419255 0.0430765319671218 -0.014455254225749071 0.012711338188107175 0.04101769723264095 0.026869235863918307 -0.04030342318466381 -19.715897664319215 0.019257035812759695 -0.03250917998869314 -0.04238389394384698 0.023629143667149237 -0.004863327744893446 -0.04114961551925503 0.004560873083184841 0.03749242904923035 24.070045504968945 0.02949017590315758 -0.011426799214149852 28.844779302199957 -0.03687958617259997 -0.00895187925256344 28.82773453791108 -0.0140356325579762 -0.02276356774365666 12.299671281412207 2.920329403420539 14.354991568825142 -75.75510007701573 15.846535178421153 -17.745606572965855 -18.356015387657855 18.722095037236713 -61.527218061053965 -24.602299214754115 -3.72271560475538 3.777694892340025 -0.5181036378947637 0.10977241664866887 -8.169908915764971 -0.027499812771597028 0.03871744987868512 44.60075097406922 0.00607917693843918 -0.0098085651178703 44.55833850336649 12.452406220803125 0.016580435959200626 0.018833415463363142 -0.016539881979611856 -0.014827264981350773 0.00028208508839389627 0.028998511307255167 -0.023124192755373505 -0.017832059818140625 11.136084422647151 0.01323970703593935 0.04496429581844108 0.007773602516381279 -0.009692479728346722 -0.043969940903745806 0.02544775147597014 0.012616917495896905 -0.010444502095032471 4.766913237883638 0.014485797741724782 0.006499585885130967 -0.0011817788971128973 -0.01782274394404867 0.049105106535238925 0.020718689873176734 0.015028148153989679 0.030822138841299716 -5.6201824496097945 -0.03135294224229152 -0.03129270680865558 -6.692281146164235 -0.0409448892492641 -0.04983927741133831 -6.761649540583435 0.029043119145165306 -0.017066539534183398 0.00462690166015323 -0.032143461467417984 0.013614524906168475 8.055207775173294 3.457023482255269 -19.17792447179574 0.0003778104419405725 10.392239170337383 0.03350650796353963 -5.641731063449494 -15.68541597233973 3.230317290575871 -0.03997965968431897 0.0284755631319016 0.00017648146228438363 -0.0025445744981614418 4.70572427971125 0.04269679550239637 12.477172665258122 -8.222522301318728 6.912331947552866 0.00611507550414644 46.3570274788394 0.025187668784298928 -4.34141544351369 -14.740095263248834 -3.835982061296796 -0.04856498162443222 0.04246482113486195 0.029475343926982412 0.04898975230773121 -10.70044314937849 -0.009874841986855324 
